<svg width="17" height="16" viewBox="0 0 17 16" fill="none" xmlns="http://www.w3.org/2000/svg">
<path d="M0.514404 2.09639C0.514404 1.19809 1.24262 0.469879 2.14091 0.469879H15.153C16.0513 0.469879 16.7795 1.19809 16.7795 2.09639V11.0422C16.7795 11.9405 16.0513 12.6687 15.153 12.6687H11.4236L9.22199 14.8702C8.9044 15.1878 8.38947 15.1878 8.07188 14.8702L5.87031 12.6687H2.14091C1.24262 12.6687 0.514404 11.9405 0.514404 11.0422V2.09639ZM15.153 2.09639H2.14091V11.0422H6.20717C6.42286 11.0422 6.62972 11.1279 6.78223 11.2804L8.64693 13.1451L10.5116 11.2804C10.6642 11.1279 10.871 11.0422 11.0867 11.0422H15.153V2.09639ZM3.76742 4.94277C3.76742 4.49362 4.13152 4.12952 4.58067 4.12952H12.7132C13.1623 4.12952 13.5265 4.49362 13.5265 4.94277C13.5265 5.39192 13.1623 5.75602 12.7132 5.75602H4.58067C4.13152 5.75602 3.76742 5.39192 3.76742 4.94277ZM3.76742 8.19578C3.76742 7.74664 4.13152 7.38253 4.58067 7.38253H9.46019C9.90933 7.38253 10.2734 7.74664 10.2734 8.19578C10.2734 8.64493 9.90933 9.00904 9.46019 9.00904H4.58067C4.13152 9.00904 3.76742 8.64493 3.76742 8.19578Z" fill="#1C1D22"/>
</svg>
