<svg width="9" height="9" viewBox="0 0 9 9" fill="none" xmlns="http://www.w3.org/2000/svg">
<path d="M1 8H1.7125L6.6 3.1125L5.8875 2.4L1 7.2875V8ZM0 9V6.875L6.6 0.2875C6.7 0.195833 6.8105 0.125 6.9315 0.0750001C7.0525 0.0250001 7.1795 0 7.3125 0C7.4455 0 7.57466 0.0250001 7.7 0.0750001C7.82533 0.125 7.93366 0.2 8.025 0.3L8.7125 1C8.8125 1.09167 8.8855 1.2 8.9315 1.325C8.9775 1.45 9.00033 1.575 9 1.7C9 1.83333 8.97716 1.9605 8.9315 2.0815C8.88583 2.2025 8.81283 2.31283 8.7125 2.4125L2.125 9H0ZM6.2375 2.7625L5.8875 2.4L6.6 3.1125L6.2375 2.7625Z" fill="#8D8D90"/>
</svg>
