<svg width="20" height="5" viewBox="0 0 20 5" fill="none" xmlns="http://www.w3.org/2000/svg">
<path d="M15.3847 2.30765C15.3847 1.03514 16.4198 -1.56494e-07 17.6923 -1.00871e-07C18.9649 -4.52473e-08 20 1.03514 20 2.30765C20 3.58017 18.9649 4.61531 17.6923 4.61531C16.4198 4.61531 15.3847 3.58017 15.3847 2.30765ZM18.4616 2.30765C18.4616 1.8832 18.1168 1.53844 17.6923 1.53844C17.2679 1.53844 16.9231 1.8832 16.9231 2.30765C16.9231 2.73211 17.2679 3.07687 17.6923 3.07687C18.1168 3.07687 18.4616 2.73211 18.4616 2.30765Z" fill="black"/>
<path d="M7.69573 2.30765C7.69573 1.03514 8.73086 -1.56494e-07 10.0034 -1.00871e-07C11.2759 -4.52473e-08 12.311 1.03514 12.311 2.30765C12.311 3.58017 11.2759 4.61531 10.0034 4.61531C8.73086 4.61531 7.69573 3.58017 7.69573 2.30765ZM10.7726 2.30765C10.7726 1.8832 10.4278 1.53844 10.0034 1.53844C9.57893 1.53844 9.23416 1.8832 9.23416 2.30765C9.23416 2.73211 9.57893 3.07687 10.0034 3.07687C10.4278 3.07687 10.7726 2.73211 10.7726 2.30765Z" fill="black"/>
<path d="M0.000413317 2.30765C0.000413373 1.03514 1.03555 -1.56494e-07 2.30807 -1.00871e-07C3.58059 -4.52473e-08 4.61572 1.03514 4.61572 2.30765C4.61572 3.58017 3.58059 4.61531 2.30807 4.61531C1.03555 4.61531 0.000413261 3.58017 0.000413317 2.30765ZM3.07729 2.30765C3.07729 1.8832 2.73252 1.53844 2.30807 1.53844C1.88361 1.53844 1.53885 1.8832 1.53885 2.30765C1.53885 2.73211 1.88361 3.07687 2.30807 3.07687C2.73252 3.07687 3.07729 2.73211 3.07729 2.30765Z" fill="black"/>
</svg>
