<svg width="13" height="10" viewBox="0 0 13 10" fill="none" xmlns="http://www.w3.org/2000/svg">
<path d="M0.848999 1.23306C0.848999 0.835914 1.17095 0.513962 1.5681 0.513962H2.2872C2.68435 0.513962 3.0063 0.835914 3.0063 1.23306C3.0063 1.63021 2.68435 1.95216 2.2872 1.95216H1.5681C1.17095 1.95216 0.848999 1.63021 0.848999 1.23306ZM4.4445 1.23306C4.4445 0.835914 4.76646 0.513962 5.16361 0.513962H11.6355C12.0327 0.513962 12.3546 0.835914 12.3546 1.23306C12.3546 1.63021 12.0327 1.95216 11.6355 1.95216H5.16361C4.76646 1.95216 4.4445 1.63021 4.4445 1.23306ZM0.848999 4.82857C0.848999 4.43142 1.17095 4.10947 1.5681 4.10947H2.2872C2.68435 4.10947 3.0063 4.43142 3.0063 4.82857C3.0063 5.22572 2.68435 5.54767 2.2872 5.54767H1.5681C1.17095 5.54767 0.848999 5.22572 0.848999 4.82857ZM4.4445 4.82857C4.4445 4.43142 4.76646 4.10947 5.16361 4.10947H11.6355C12.0327 4.10947 12.3546 4.43142 12.3546 4.82857C12.3546 5.22572 12.0327 5.54767 11.6355 5.54767H5.16361C4.76646 5.54767 4.4445 5.22572 4.4445 4.82857ZM0.848999 8.42408C0.848999 8.02693 1.17095 7.70497 1.5681 7.70497H2.2872C2.68435 7.70497 3.0063 8.02693 3.0063 8.42408C3.0063 8.82122 2.68435 9.14318 2.2872 9.14318H1.5681C1.17095 9.14318 0.848999 8.82122 0.848999 8.42408ZM4.4445 8.42408C4.4445 8.02693 4.76646 7.70497 5.16361 7.70497H11.6355C12.0327 7.70497 12.3546 8.02693 12.3546 8.42408C12.3546 8.82122 12.0327 9.14318 11.6355 9.14318H5.16361C4.76646 9.14318 4.4445 8.82122 4.4445 8.42408Z" fill="#1C1D22"/>
</svg>
